<svg width="24" height="27" viewBox="0 0 24 27" fill="none" xmlns="http://www.w3.org/2000/svg">
<path fill-rule="evenodd" clip-rule="evenodd" d="M12.3705 24.8702C14.0957 23.502 15.6923 22.0148 17.145 20.423C20.205 17.0626 22.0665 13.7495 22.1925 10.8035C22.2424 9.60615 22.0156 8.41235 21.5258 7.29336C21.036 6.17436 20.2932 5.15314 19.3417 4.29069C18.3903 3.42824 17.2497 2.74225 15.9882 2.27371C14.7266 1.80517 13.37 1.56369 11.9993 1.56369C10.6285 1.56369 9.27188 1.80517 8.01033 2.27371C6.74878 2.74225 5.60821 3.42824 4.65676 4.29069C3.70531 5.15314 2.96249 6.17436 2.47269 7.29336C1.98289 8.41235 1.75614 9.60615 1.806 10.8035C1.9335 13.7495 3.7965 17.0626 6.855 20.423C8.30769 22.0148 9.90433 23.502 11.6295 24.8702C11.7955 25.0014 11.919 25.0966 12 25.1561L12.3705 24.8702ZM10.893 26.3977C10.893 26.3977 0 18.379 0 10.4888C0 7.70699 1.26428 5.03913 3.51472 3.0721C5.76516 1.10507 8.8174 0 12 0C15.1826 0 18.2348 1.10507 20.4853 3.0721C22.7357 5.03913 24 7.70699 24 10.4888C24 18.379 13.107 26.3977 13.107 26.3977C12.501 26.8854 11.5035 26.8802 10.893 26.3977ZM12 14.1599C13.1139 14.1599 14.1822 13.7731 14.9698 13.0846C15.7575 12.3962 16.2 11.4624 16.2 10.4888C16.2 9.51516 15.7575 8.58141 14.9698 7.89295C14.1822 7.20449 13.1139 6.81772 12 6.81772C10.8861 6.81772 9.8178 7.20449 9.03015 7.89295C8.2425 8.58141 7.8 9.51516 7.8 10.4888C7.8 11.4624 8.2425 12.3962 9.03015 13.0846C9.8178 13.7731 10.8861 14.1599 12 14.1599ZM12 15.7332C10.4087 15.7332 8.88258 15.1807 7.75736 14.1971C6.63214 13.2136 6 11.8797 6 10.4888C6 9.09789 6.63214 7.76396 7.75736 6.78044C8.88258 5.79693 10.4087 5.2444 12 5.2444C13.5913 5.2444 15.1174 5.79693 16.2426 6.78044C17.3679 7.76396 18 9.09789 18 10.4888C18 11.8797 17.3679 13.2136 16.2426 14.1971C15.1174 15.1807 13.5913 15.7332 12 15.7332Z" fill="#757575"/>
</svg>
