<svg width="24" height="24" viewBox="0 0 24 24" fill="none" xmlns="http://www.w3.org/2000/svg">
<g clip-path="url(#clip0_106_111)">
<path fill-rule="evenodd" clip-rule="evenodd" d="M24 12C24 18.6276 18.6276 24 12 24C5.3724 24 0 18.6276 0 12C0 5.3724 5.3724 0 12 0C18.6276 0 24 5.3724 24 12ZM12 21.6C14.5461 21.6 16.9879 20.5886 18.7882 18.7882C20.5886 16.9879 21.6 14.5461 21.6 12C21.6 9.45392 20.5886 7.01212 18.7882 5.21178C16.9879 3.41143 14.5461 2.4 12 2.4C9.45392 2.4 7.01212 3.41143 5.21178 5.21178C3.41143 7.01212 2.4 9.45392 2.4 12C2.4 14.5461 3.41143 16.9879 5.21178 18.7882C7.01212 20.5886 9.45392 21.6 12 21.6Z" fill="black"/>
<path fill-rule="evenodd" clip-rule="evenodd" d="M11.9998 14.4C11.6815 14.4 11.3763 14.2736 11.1513 14.0485C10.9262 13.8235 10.7998 13.5183 10.7998 13.2V7.2C10.7998 6.88174 10.9262 6.57652 11.1513 6.35147C11.3763 6.12643 11.6815 6 11.9998 6C12.3181 6 12.6233 6.12643 12.8483 6.35147C13.0734 6.57652 13.1998 6.88174 13.1998 7.2V13.2C13.1998 13.5183 13.0734 13.8235 12.8483 14.0485C12.6233 14.2736 12.3181 14.4 11.9998 14.4Z" fill="black"/>
<path d="M10.7998 16.8C10.7998 16.4817 10.9262 16.1765 11.1513 15.9514C11.3763 15.7264 11.6815 15.6 11.9998 15.6C12.3181 15.6 12.6233 15.7264 12.8483 15.9514C13.0734 16.1765 13.1998 16.4817 13.1998 16.8C13.1998 17.1182 13.0734 17.4235 12.8483 17.6485C12.6233 17.8735 12.3181 18 11.9998 18C11.6815 18 11.3763 17.8735 11.1513 17.6485C10.9262 17.4235 10.7998 17.1182 10.7998 16.8Z" fill="black"/>
</g>
<defs>
<clipPath id="clip0_106_111">
<rect width="24" height="24" fill="white"/>
</clipPath>
</defs>
</svg>
