<svg width="24" height="27" viewBox="0 0 24 27" fill="none" xmlns="http://www.w3.org/2000/svg">
<path d="M21 2.91465H17.4V0.907533C17.4 0.730093 17.3368 0.55992 17.2243 0.434452C17.1117 0.308983 16.9591 0.238495 16.8 0.238495C16.6409 0.238495 16.4883 0.308983 16.3757 0.434452C16.2632 0.55992 16.2 0.730093 16.2 0.907533V2.91465H7.8V0.907533C7.8 0.730093 7.73679 0.55992 7.62426 0.434452C7.51174 0.308983 7.35913 0.238495 7.2 0.238495C7.04087 0.238495 6.88826 0.308983 6.77574 0.434452C6.66321 0.55992 6.6 0.730093 6.6 0.907533V2.91465H3C2.20464 2.91571 1.44213 3.26849 0.879732 3.8956C0.317329 4.52272 0.000952715 5.37296 0 6.25983V23.6548C0.000952715 24.5417 0.317329 25.3919 0.879732 26.019C1.44213 26.6462 2.20464 26.9989 3 27H21C21.7957 27 22.5587 26.6476 23.1213 26.0202C23.6839 25.3929 24 24.542 24 23.6548V6.25983C24 5.37263 23.6839 4.52177 23.1213 3.89443C22.5587 3.26708 21.7957 2.91465 21 2.91465ZM22.8 23.6548C22.8 24.1871 22.6104 24.6976 22.2728 25.0741C21.9352 25.4505 21.4774 25.6619 21 25.6619H3C2.52261 25.6619 2.06477 25.4505 1.72721 25.0741C1.38964 24.6976 1.2 24.1871 1.2 23.6548V12.2812H22.8V23.6548ZM22.8 10.9431H1.2V6.25983C1.2 5.15191 2.004 4.25272 3 4.25272H6.6V6.25983C6.6 6.43727 6.66321 6.60745 6.77574 6.73291C6.88826 6.85838 7.04087 6.92887 7.2 6.92887C7.35913 6.92887 7.51174 6.85838 7.62426 6.73291C7.73679 6.60745 7.8 6.43727 7.8 6.25983V4.25272H16.2V6.25983C16.2 6.43727 16.2632 6.60745 16.3757 6.73291C16.4883 6.85838 16.6409 6.92887 16.8 6.92887C16.9591 6.92887 17.1117 6.85838 17.2243 6.73291C17.3368 6.60745 17.4 6.43727 17.4 6.25983V4.25272H21C21.4774 4.25272 21.9352 4.46418 22.2728 4.84059C22.6104 5.217 22.8 5.72751 22.8 6.25983V10.9431Z" fill="#8D8A8A"/>
</svg>
