<svg width="15" height="20" viewBox="0 0 15 20" fill="none" xmlns="http://www.w3.org/2000/svg">
<path d="M7.5 18.1818C8.30584 18.1818 9.10379 17.9702 9.84828 17.559C10.5928 17.1478 11.2693 16.5452 11.8391 15.7854C12.4089 15.0257 12.8609 14.1237 13.1693 13.131C13.4776 12.1384 13.6364 11.0745 13.6364 10C13.6364 8.92555 13.4776 7.86162 13.1693 6.86895C12.8609 5.87629 12.4089 4.97433 11.8391 4.21458C11.2693 3.45483 10.5928 2.85216 9.84828 2.44099C9.10379 2.02981 8.30584 1.81818 7.5 1.81818C5.87254 1.81818 4.31173 2.68019 3.16094 4.21458C2.01014 5.74897 1.36364 7.83005 1.36364 10C1.36364 12.17 2.01014 14.251 3.16094 15.7854C4.31173 17.3198 5.87254 18.1818 7.5 18.1818ZM15 10C15 15.5227 11.642 20 7.5 20C3.35795 20 0 15.5227 0 10C0 4.47727 3.35795 0 7.5 0C11.642 0 15 4.47727 15 10ZM9.54545 14.0127L6.81818 10.3764V4.09091H8.18182V9.62364L10.5095 12.7273L9.54545 14.0127Z" fill="black"/>
</svg>
