<svg width="98" height="98" viewBox="0 0 98 98" fill="none" xmlns="http://www.w3.org/2000/svg">
<path d="M76.5625 39.8125C76.5625 32.5025 73.6586 25.4918 68.4896 20.3229C63.3207 15.1539 56.31 12.25 49 12.25C41.69 12.25 34.6793 15.1539 29.5104 20.3229C24.3414 25.4918 21.4375 32.5025 21.4375 39.8125C21.4375 51.1193 30.4841 65.856 49 83.5082C67.5159 65.856 76.5625 51.1193 76.5625 39.8125ZM49 91.875C26.5396 71.4604 15.3125 54.1021 15.3125 39.8125C15.3125 30.878 18.8617 22.3095 25.1793 15.9918C31.497 9.67421 40.0655 6.125 49 6.125C57.9345 6.125 66.503 9.67421 72.8207 15.9918C79.1383 22.3095 82.6875 30.878 82.6875 39.8125C82.6875 54.1021 71.4604 71.4604 49 91.875Z" fill="black"/>
<path d="M49 49C51.4367 49 53.7736 48.032 55.4965 46.309C57.2195 44.5861 58.1875 42.2492 58.1875 39.8125C58.1875 37.3758 57.2195 35.0389 55.4965 33.316C53.7736 31.593 51.4367 30.625 49 30.625C46.5633 30.625 44.2264 31.593 42.5035 33.316C40.7805 35.0389 39.8125 37.3758 39.8125 39.8125C39.8125 42.2492 40.7805 44.5861 42.5035 46.309C44.2264 48.032 46.5633 49 49 49ZM49 55.125C44.9389 55.125 41.0441 53.5117 38.1724 50.6401C35.3008 47.7684 33.6875 43.8736 33.6875 39.8125C33.6875 35.7514 35.3008 31.8566 38.1724 28.9849C41.0441 26.1133 44.9389 24.5 49 24.5C53.0611 24.5 56.9559 26.1133 59.8276 28.9849C62.6992 31.8566 64.3125 35.7514 64.3125 39.8125C64.3125 43.8736 62.6992 47.7684 59.8276 50.6401C56.9559 53.5117 53.0611 55.125 49 55.125Z" fill="black"/>
</svg>
