<svg width="33" height="33" viewBox="0 0 33 33" fill="none" xmlns="http://www.w3.org/2000/svg">
<path d="M25.1053 28C25.6078 28 26.0897 27.8004 26.445 27.445C26.8004 27.0897 27 26.6078 27 26.1053V21.6842C27 21.1817 26.8004 20.6998 26.445 20.3444C26.0897 19.9891 25.6078 19.7895 25.1053 19.7895C23.6274 19.7895 22.1747 19.5621 20.7853 19.0947C20.4531 18.9899 20.0985 18.978 19.76 19.0604C19.4215 19.1428 19.1121 19.3163 18.8653 19.5621L17.0463 21.3811C13.9039 19.6662 11.3212 17.0835 9.60632 13.9411L11.4126 12.1347C11.9305 11.6421 12.12 10.9095 11.8926 10.2021C11.4379 8.82526 11.2105 7.37263 11.2105 5.89474C11.2105 5.39222 11.0109 4.91029 10.6556 4.55496C10.3002 4.19962 9.8183 4 9.31579 4H4.89474C4.39222 4 3.91029 4.19962 3.55496 4.55496C3.19962 4.91029 3 5.39222 3 5.89474C3 18.0842 12.9158 28 25.1053 28ZM4.89474 5.26316H9.31579C9.48329 5.26316 9.64394 5.3297 9.76238 5.44814C9.88083 5.56659 9.94737 5.72723 9.94737 5.89474C9.94737 7.51158 10.2 9.09053 10.6926 10.5937C10.7558 10.7705 10.7432 11.0232 10.5411 11.2253L8.05263 13.7011C10.1368 17.7811 13.1937 20.8379 17.2863 22.9474L19.7495 20.4589C19.9263 20.2821 20.1663 20.2316 20.3937 20.2947C21.9095 20.8 23.4884 21.0526 25.1053 21.0526C25.2728 21.0526 25.4334 21.1192 25.5519 21.2376C25.6703 21.3561 25.7368 21.5167 25.7368 21.6842V26.1053C25.7368 26.2728 25.6703 26.4334 25.5519 26.5519C25.4334 26.6703 25.2728 26.7368 25.1053 26.7368C13.6105 26.7368 4.26316 17.3895 4.26316 5.89474C4.26316 5.72723 4.3297 5.56659 4.44814 5.44814C4.56659 5.3297 4.72723 5.26316 4.89474 5.26316Z" fill="#757575"/>
</svg>
