<svg width="27" height="24" viewBox="0 0 27 24" fill="none" xmlns="http://www.w3.org/2000/svg">
<g clip-path="url(#clip0_103_9)">
<path fill-rule="evenodd" clip-rule="evenodd" d="M24.4485 12C24.4485 18.6276 19.0761 24 12.4485 24C5.82089 24 0.448486 18.6276 0.448486 12C0.448486 5.3724 5.82089 0 12.4485 0C19.0761 0 24.4485 5.3724 24.4485 12ZM12.4485 21.6C14.9946 21.6 17.4364 20.5886 19.2367 18.7882C21.0371 16.9879 22.0485 14.5461 22.0485 12C22.0485 9.45392 21.0371 7.01212 19.2367 5.21178C17.4364 3.41143 14.9946 2.4 12.4485 2.4C9.90241 2.4 7.46061 3.41143 5.66026 5.21178C3.85991 7.01212 2.84849 9.45392 2.84849 12C2.84849 14.5461 3.85991 16.9879 5.66026 18.7882C7.46061 20.5886 9.90241 21.6 12.4485 21.6Z" fill="#47B8FF"/>
<path fill-rule="evenodd" clip-rule="evenodd" d="M12.4485 14.4C12.1303 14.4 11.8251 14.2736 11.6 14.0485C11.375 13.8235 11.2485 13.5183 11.2485 13.2V7.2C11.2485 6.88174 11.375 6.57652 11.6 6.35147C11.8251 6.12643 12.1303 6 12.4485 6C12.7668 6 13.072 6.12643 13.2971 6.35147C13.5221 6.57652 13.6485 6.88174 13.6485 7.2V13.2C13.6485 13.5183 13.5221 13.8235 13.2971 14.0485C13.072 14.2736 12.7668 14.4 12.4485 14.4Z" fill="#47B8FF"/>
<path d="M11.2485 16.8C11.2485 16.4817 11.375 16.1765 11.6 15.9514C11.8251 15.7264 12.1303 15.6 12.4485 15.6C12.7668 15.6 13.072 15.7264 13.2971 15.9514C13.5221 16.1765 13.6485 16.4817 13.6485 16.8C13.6485 17.1182 13.5221 17.4235 13.2971 17.6485C13.072 17.8735 12.7668 18 12.4485 18C12.1303 18 11.8251 17.8735 11.6 17.6485C11.375 17.4235 11.2485 17.1182 11.2485 16.8Z" fill="#47B8FF"/>
</g>
<defs>
<clipPath id="clip0_103_9">
<rect width="25.8631" height="24" fill="white" transform="translate(0.448486)"/>
</clipPath>
</defs>
</svg>
