<svg width="24" height="24" viewBox="0 0 24 24" fill="none" xmlns="http://www.w3.org/2000/svg">
<g clip-path="url(#clip0_88_71)">
<path fill-rule="evenodd" clip-rule="evenodd" d="M24 12C24 18.6276 18.6276 24 12 24C5.3724 24 0 18.6276 0 12C0 5.3724 5.3724 0 12 0C18.6276 0 24 5.3724 24 12ZM12 21.6C14.5461 21.6 16.9879 20.5886 18.7882 18.7882C20.5886 16.9879 21.6 14.5461 21.6 12C21.6 9.45392 20.5886 7.01212 18.7882 5.21178C16.9879 3.41143 14.5461 2.4 12 2.4C9.45392 2.4 7.01212 3.41143 5.21178 5.21178C3.41143 7.01212 2.4 9.45392 2.4 12C2.4 14.5461 3.41143 16.9879 5.21178 18.7882C7.01212 20.5886 9.45392 21.6 12 21.6Z" fill="#D18B3E"/>
<path fill-rule="evenodd" clip-rule="evenodd" d="M12 14.4C11.6818 14.4 11.3766 14.2736 11.1515 14.0485C10.9265 13.8235 10.8 13.5183 10.8 13.2V7.2C10.8 6.88174 10.9265 6.57652 11.1515 6.35147C11.3766 6.12643 11.6818 6 12 6C12.3183 6 12.6235 6.12643 12.8486 6.35147C13.0736 6.57652 13.2 6.88174 13.2 7.2V13.2C13.2 13.5183 13.0736 13.8235 12.8486 14.0485C12.6235 14.2736 12.3183 14.4 12 14.4Z" fill="#D18B3E"/>
<path d="M10.8 16.8C10.8 16.4817 10.9265 16.1765 11.1515 15.9514C11.3766 15.7264 11.6818 15.6 12 15.6C12.3183 15.6 12.6235 15.7264 12.8486 15.9514C13.0736 16.1765 13.2 16.4817 13.2 16.8C13.2 17.1182 13.0736 17.4235 12.8486 17.6485C12.6235 17.8735 12.3183 18 12 18C11.6818 18 11.3766 17.8735 11.1515 17.6485C10.9265 17.4235 10.8 17.1182 10.8 16.8Z" fill="#D18B3E"/>
</g>
<defs>
<clipPath id="clip0_88_71">
<rect width="24" height="24" fill="white"/>
</clipPath>
</defs>
</svg>
