<svg width="99" height="98" viewBox="0 0 99 98" fill="none" xmlns="http://www.w3.org/2000/svg">
<path d="M17.465 51.72C17.465 42.5785 17.465 38.0045 20.3063 35.1664C23.1445 32.325 27.7185 32.325 36.86 32.325H62.72C71.8615 32.325 76.4355 32.325 79.2736 35.1664C82.115 38.0045 82.115 42.5785 82.115 51.72C82.115 60.8615 82.115 65.4355 79.2736 68.2736C76.4355 71.115 71.8615 71.115 62.72 71.115H36.86C27.7185 71.115 23.1445 71.115 20.3063 68.2736C17.465 65.4355 17.465 60.8615 17.465 51.72Z" stroke="#FFCD29" stroke-width="1.5"/>
<path d="M30.395 32.325V25.86C30.395 20.7161 32.4384 15.7829 36.0757 12.1457C39.713 8.50839 44.6461 6.465 49.79 6.465C54.9339 6.465 59.8671 8.50839 63.5044 12.1457C67.1416 15.7829 69.185 20.7161 69.185 25.86V32.325" stroke="#FFCD29" stroke-width="1.5" stroke-linecap="round"/>
</svg>
