<svg width="30" height="31" viewBox="0 0 30 31" fill="none" xmlns="http://www.w3.org/2000/svg">
<path d="M25.8889 12.8522H4.11111C2.39289 12.8522 1 14.1079 1 15.6568V26.8751C1 28.424 2.39289 29.6797 4.11111 29.6797H25.8889C27.6071 29.6797 29 28.424 29 26.8751V15.6568C29 14.1079 27.6071 12.8522 25.8889 12.8522Z" stroke="#14AE5C" stroke-width="2" stroke-linecap="round" stroke-linejoin="round"/>
<path d="M5.66666 12.8523V5.84083C5.66666 4.72511 6.15832 3.65507 7.03349 2.86613C7.90866 2.07719 9.09565 1.63397 10.3333 1.63397H19.6667C20.9043 1.63397 22.0913 2.07719 22.9665 2.86613C23.8417 3.65507 24.3333 4.72511 24.3333 5.84083V7.24312" stroke="#14AE5C" stroke-width="2" stroke-linecap="round" stroke-linejoin="round"/>
</svg>
