<svg width="27" height="33" viewBox="0 0 27 33" fill="none" xmlns="http://www.w3.org/2000/svg">
<path d="M1 22.8128C1 18.4066 1 16.202 2.09061 14.834C3.17998 13.4644 4.93563 13.4644 8.44444 13.4644H18.3704C21.8792 13.4644 23.6348 13.4644 24.7242 14.834C25.8148 16.202 25.8148 18.4066 25.8148 22.8128C25.8148 27.219 25.8148 29.4236 24.7242 30.7916C23.6348 32.1611 21.8792 32.1611 18.3704 32.1611H8.44444C4.93563 32.1611 3.17998 32.1611 2.09061 30.7916C1 29.4236 1 27.219 1 22.8128Z" stroke="#FFCD29" stroke-width="1.5"/>
<path d="M5.96289 13.4645V10.3483C5.96289 7.86901 6.74721 5.49122 8.14332 3.73807C9.53942 1.98491 11.4329 1 13.4073 1C15.3817 1 17.2752 1.98491 18.6714 3.73807C20.0675 5.49122 20.8518 7.86901 20.8518 10.3483V13.4645" stroke="#FFCD29" stroke-width="1.5" stroke-linecap="round"/>
</svg>
