<svg width="24" height="25" viewBox="0 0 24 25" fill="none" xmlns="http://www.w3.org/2000/svg">
<path fill-rule="evenodd" clip-rule="evenodd" d="M12 12.5C14.21 12.5 16 10.71 16 8.5C16 6.29 14.21 4.5 12 4.5C9.79 4.5 8 6.29 8 8.5C8 10.71 9.79 12.5 12 12.5ZM17 8.5C17 11.2625 14.7625 13.5 12 13.5C9.2375 13.5 7 11.2625 7 8.5C7 5.7375 9.2375 3.5 12 3.5C14.7625 3.5 17 5.7375 17 8.5ZM4.6115 17.606C4.11 18.011 4 18.3145 4 18.5V20.5H20V18.5C20 18.315 19.89 18.0105 19.388 17.606C18.898 17.2105 18.167 16.8335 17.281 16.5075C15.51 15.856 13.3765 15.5 12 15.5C10.6235 15.5 8.49 15.856 6.719 16.5075C5.833 16.8335 5.102 17.2105 4.6115 17.606ZM12 14.5C8.9965 14.5 3 16.0175 3 18.5V21.5H21V18.5C21 16.0175 15.004 14.5 12 14.5Z" fill="#757575"/>
</svg>
