<svg width="26" height="26" viewBox="0 0 26 26" fill="none" xmlns="http://www.w3.org/2000/svg">
<path d="M1 17.8C1 14.4064 1 12.7084 2.0548 11.6548C3.1084 10.6 4.8064 10.6 8.2 10.6H17.8C21.1936 10.6 22.8916 10.6 23.9452 11.6548C25 12.7084 25 14.4064 25 17.8C25 21.1936 25 22.8916 23.9452 23.9452C22.8916 25 21.1936 25 17.8 25H8.2C4.8064 25 3.1084 25 2.0548 23.9452C1 22.8916 1 21.1936 1 17.8Z" stroke="black" stroke-width="1.5"/>
<path d="M5.80005 10.6V8.2C5.80005 6.29044 6.55862 4.45909 7.90888 3.10883C9.25914 1.75857 11.0905 1 13 1C14.9096 1 16.741 1.75857 18.0912 3.10883C19.4415 4.45909 20.2 6.29044 20.2 8.2V10.6" stroke="black" stroke-width="1.5" stroke-linecap="round"/>
</svg>
