<svg width="99" height="98" viewBox="0 0 99 98" fill="none" xmlns="http://www.w3.org/2000/svg">
<path d="M80.125 89.8333C81.7494 89.8333 83.3073 89.188 84.456 88.0394C85.6046 86.8907 86.25 85.3328 86.25 83.7083V69.4167C86.25 67.7922 85.6046 66.2343 84.456 65.0856C83.3073 63.937 81.7494 63.2917 80.125 63.2917C75.3475 63.2917 70.6516 62.5567 66.16 61.0458C65.0861 60.7069 63.9399 60.6685 62.8457 60.9348C61.7516 61.2012 60.7512 61.7621 59.9533 62.5567L54.0733 68.4367C43.9149 62.8932 35.5659 54.5442 30.0225 44.3858L35.8616 38.5467C37.5358 36.9542 38.1483 34.5858 37.4133 32.2992C35.9433 27.8483 35.2083 23.1525 35.2083 18.375C35.2083 16.7505 34.563 15.1926 33.4143 14.044C32.2657 12.8953 30.7077 12.25 29.0833 12.25H14.7916C13.1672 12.25 11.6093 12.8953 10.4606 14.044C9.31194 15.1926 8.66663 16.7505 8.66663 18.375C8.66663 57.7792 40.7208 89.8333 80.125 89.8333ZM14.7916 16.3333H29.0833C29.6248 16.3333 30.1441 16.5484 30.527 16.9313C30.9099 17.3142 31.125 17.8335 31.125 18.375C31.125 23.6017 31.9416 28.7058 33.5341 33.565C33.7383 34.1367 33.6975 34.9533 33.0441 35.6067L25 43.61C31.7375 56.7992 41.6191 66.6808 54.8491 73.5L62.8116 65.4558C63.3833 64.8842 64.1591 64.7208 64.8941 64.925C69.7941 66.5583 74.8983 67.375 80.125 67.375C80.6664 67.375 81.1857 67.5901 81.5686 67.973C81.9515 68.3559 82.1666 68.8752 82.1666 69.4167V83.7083C82.1666 84.2498 81.9515 84.7691 81.5686 85.152C81.1857 85.5349 80.6664 85.75 80.125 85.75C42.9666 85.75 12.75 55.5333 12.75 18.375C12.75 17.8335 12.9651 17.3142 13.3479 16.9313C13.7308 16.5484 14.2501 16.3333 14.7916 16.3333Z" fill="#FFD700"/>
</svg>
