<svg width="25" height="24" viewBox="0 0 25 24" fill="none" xmlns="http://www.w3.org/2000/svg">
<path fill-rule="evenodd" clip-rule="evenodd" d="M7.5 5.33331C6.70435 5.33331 5.94129 5.75474 5.37868 6.50489C4.81607 7.25503 4.5 8.27245 4.5 9.33331C4.5 10.3942 4.81607 11.4116 5.37868 12.1617C5.94129 12.9119 6.70435 13.3333 7.5 13.3333C8.29565 13.3333 9.05871 12.9119 9.62132 12.1617C10.1839 11.4116 10.5 10.3942 10.5 9.33331C10.5 8.27245 10.1839 7.25503 9.62132 6.50489C9.05871 5.75474 8.29565 5.33331 7.5 5.33331ZM6.5 9.33331C6.5 8.97969 6.60536 8.64055 6.79289 8.3905C6.98043 8.14046 7.23478 7.99998 7.5 7.99998C7.76522 7.99998 8.01957 8.14046 8.20711 8.3905C8.39464 8.64055 8.5 8.97969 8.5 9.33331C8.5 9.68693 8.39464 10.0261 8.20711 10.2761C8.01957 10.5262 7.76522 10.6666 7.5 10.6666C7.23478 10.6666 6.98043 10.5262 6.79289 10.2761C6.60536 10.0261 6.5 9.68693 6.5 9.33331Z" fill="#757575"/>
<path fill-rule="evenodd" clip-rule="evenodd" d="M3.5 0C2.70435 0 1.94129 0.421427 1.37868 1.17157C0.81607 1.92172 0.5 2.93913 0.5 4L0.5 20C0.5 21.0609 0.81607 22.0783 1.37868 22.8284C1.94129 23.5786 2.70435 24 3.5 24H21.5C22.2956 24 23.0587 23.5786 23.6213 22.8284C24.1839 22.0783 24.5 21.0609 24.5 20V4C24.5 2.93913 24.1839 1.92172 23.6213 1.17157C23.0587 0.421427 22.2956 0 21.5 0H3.5ZM21.5 2.66667H3.5C3.23478 2.66667 2.98043 2.80714 2.79289 3.05719C2.60536 3.30724 2.5 3.64638 2.5 4V20C2.5 20.3536 2.60536 20.6928 2.79289 20.9428C2.98043 21.1929 3.23478 21.3333 3.5 21.3333H7.814L14.692 12.1613C14.9706 11.7898 15.3013 11.4951 15.6653 11.2941C16.0293 11.093 16.4195 10.9895 16.8135 10.9895C17.2075 10.9895 17.5977 11.093 17.9617 11.2941C18.3257 11.4951 18.6564 11.7898 18.935 12.1613L22.5 16.9147V4C22.5 3.64638 22.3946 3.30724 22.2071 3.05719C22.0196 2.80714 21.7652 2.66667 21.5 2.66667ZM21.5 21.3333H10.642L16.107 14.048C16.2945 13.798 16.5488 13.6576 16.814 13.6576C17.0792 13.6576 17.3335 13.798 17.521 14.048L22.407 20.5627C22.3266 20.793 22.1985 20.9879 22.0378 21.1244C21.8771 21.261 21.6905 21.3334 21.5 21.3333Z" fill="#757575"/>
</svg>
