<svg width="15" height="20" viewBox="0 0 15 20" fill="none" xmlns="http://www.w3.org/2000/svg">
<path d="M8.80882 13.75C8.80882 14.0815 8.70914 14.3995 8.53171 14.6339C8.35428 14.8683 8.11364 15 7.86272 15C7.6118 15 7.37115 14.8683 7.19372 14.6339C7.01629 14.3995 6.91662 14.0815 6.91662 13.75C6.91662 13.4185 7.01629 13.1005 7.19372 12.8661C7.37115 12.6317 7.6118 12.5 7.86272 12.5C8.11364 12.5 8.35428 12.6317 8.53171 12.8661C8.70914 13.1005 8.80882 13.4185 8.80882 13.75ZM7.38967 5C6.76236 5 6.16075 5.32924 5.71718 5.91529C5.27361 6.50134 5.02441 7.2962 5.02441 8.125H6.91662C6.91662 7.95924 6.96646 7.80027 7.05517 7.68306C7.14388 7.56585 7.26421 7.5 7.38967 7.5H8.00085C8.08231 7.50005 8.16137 7.53646 8.2252 7.60332C8.28904 7.67018 8.3339 7.76357 8.35252 7.86835C8.37114 7.97312 8.36243 8.08314 8.32779 8.18055C8.29315 8.27796 8.23462 8.35705 8.16169 8.405L6.91662 9.2275V11.25H8.80882V10.7725L9.00845 10.64C9.46223 10.3399 9.82606 9.84615 10.041 9.23881C10.256 8.63146 10.3095 7.94604 10.1929 7.29349C10.0764 6.64095 9.79651 6.05949 9.39867 5.64326C9.00084 5.22702 8.50832 5.00037 8.00085 5H7.38967Z" fill="black"/>
<path d="M0 10C0 7.34784 0.790176 4.8043 2.1967 2.92893C3.60322 1.05357 5.51088 0 7.5 0C9.48912 0 11.3968 1.05357 12.8033 2.92893C14.2098 4.8043 15 7.34784 15 10C15 12.6522 14.2098 15.1957 12.8033 17.0711C11.3968 18.9464 9.48912 20 7.5 20C5.51088 20 3.60322 18.9464 2.1967 17.0711C0.790176 15.1957 0 12.6522 0 10ZM7.5 2.5C6.76131 2.5 6.02986 2.69399 5.34741 3.0709C4.66495 3.44781 4.04485 4.00026 3.52252 4.6967C3.00019 5.39314 2.58586 6.21993 2.30318 7.12987C2.02049 8.03982 1.875 9.01509 1.875 10C1.875 10.9849 2.02049 11.9602 2.30318 12.8701C2.58586 13.7801 3.00019 14.6069 3.52252 15.3033C4.04485 15.9997 4.66495 16.5522 5.34741 16.9291C6.02986 17.306 6.76131 17.5 7.5 17.5C8.99184 17.5 10.4226 16.7098 11.4775 15.3033C12.5324 13.8968 13.125 11.9891 13.125 10C13.125 8.01088 12.5324 6.10322 11.4775 4.6967C10.4226 3.29018 8.99184 2.5 7.5 2.5Z" fill="black"/>
</svg>
