<svg width="26" height="26" viewBox="0 0 26 26" fill="none" xmlns="http://www.w3.org/2000/svg">
<path d="M5.57495 10.6V8.2C5.57495 6.29044 6.33352 4.45909 7.68378 3.10883C9.03404 1.75857 10.8654 1 12.775 1C14.6845 1 16.5159 1.75857 17.8661 3.10883C19.2164 4.45909 19.975 6.29044 19.975 8.2V10.6" stroke="#FF4929" stroke-width="1.5" stroke-linecap="round"/>
<path d="M0.774902 17.8C0.774902 14.4064 0.774902 12.7084 1.8297 11.6548C2.8833 10.6 4.5813 10.6 7.9749 10.6H17.5749C20.9685 10.6 22.6665 10.6 23.7201 11.6548C24.7749 12.7084 24.7749 14.4064 24.7749 17.8C24.7749 21.1936 24.7749 22.8916 23.7201 23.9452C22.6665 25 20.9685 25 17.5749 25H7.9749C4.5813 25 2.8833 25 1.8297 23.9452C0.774902 22.8916 0.774902 21.1936 0.774902 17.8Z" stroke="#FF4929" stroke-width="1.5"/>
</svg>
