<svg width="22" height="20" viewBox="0 0 22 20" fill="none" xmlns="http://www.w3.org/2000/svg">
<path fill-rule="evenodd" clip-rule="evenodd" d="M1.68025 8.95001C1.75225 3.99001 5.82625 1.10077e-05 10.8292 1.10077e-05C12.3956 -0.00241694 13.9363 0.396839 15.3044 1.15964C16.6724 1.92243 17.822 3.02328 18.6432 4.35701C18.7415 4.52615 18.7697 4.72696 18.722 4.91664C18.6743 5.10631 18.5544 5.26985 18.3878 5.37237C18.2212 5.47489 18.0212 5.50829 17.8304 5.46544C17.6396 5.4226 17.473 5.3069 17.3662 5.14301C16.6792 4.02741 15.7174 3.10669 14.5729 2.46888C13.4284 1.83107 12.1395 1.49748 10.8292 1.50001C6.64425 1.50001 3.25425 4.82801 3.18125 8.94801L3.58125 8.55101C3.72248 8.41084 3.9136 8.33252 4.11258 8.33327C4.31155 8.33402 4.50208 8.41378 4.64225 8.55501C4.78242 8.69624 4.86074 8.88736 4.85999 9.08634C4.85924 9.28532 4.77948 9.47584 4.63825 9.61601L2.95825 11.282C2.81779 11.4212 2.62802 11.4994 2.43025 11.4994C2.23248 11.4994 2.04271 11.4212 1.90225 11.282L0.222249 9.61601C0.152254 9.54667 0.0966021 9.46423 0.05847 9.37338C0.0203379 9.28254 0.000472625 9.18507 8.33137e-06 9.08655C-0.000455962 8.98802 0.0184898 8.89037 0.0557639 8.79917C0.0930381 8.70797 0.147911 8.62501 0.217249 8.55501C0.286587 8.48502 0.369032 8.42936 0.459878 8.39123C0.550723 8.3531 0.64819 8.33324 0.746713 8.33277C0.845236 8.33231 0.942886 8.35125 1.03409 8.38853C1.12529 8.4258 1.20825 8.48067 1.27825 8.55001L1.68025 8.95001ZM18.5362 8.21701C18.6767 8.07808 18.8662 8.00016 19.0637 8.00016C19.2613 8.00016 19.4508 8.07808 19.5912 8.21701L21.2772 9.88301C21.3492 9.95179 21.4067 10.0342 21.4465 10.1254C21.4862 10.2167 21.5074 10.3149 21.5088 10.4144C21.5103 10.5139 21.4919 10.6127 21.4547 10.705C21.4176 10.7973 21.3624 10.8814 21.2925 10.9522C21.2226 11.023 21.1392 11.0791 21.0474 11.1174C20.9555 11.1557 20.8569 11.1753 20.7574 11.1751C20.6579 11.1749 20.5594 11.1549 20.4677 11.1162C20.376 11.0776 20.2929 11.0211 20.2232 10.95L19.8132 10.545C19.7432 15.51 15.6522 19.5 10.6332 19.5C9.06302 19.5035 7.51803 19.1051 6.14536 18.3426C4.77268 17.5801 3.618 16.479 2.79125 15.144C2.73951 15.0602 2.70479 14.9669 2.68907 14.8697C2.67336 14.7724 2.67696 14.673 2.69966 14.5771C2.72236 14.4812 2.76373 14.3908 2.8214 14.3109C2.87906 14.231 2.9519 14.1633 3.03575 14.1115C3.1196 14.0598 3.21282 14.0251 3.31008 14.0093C3.40735 13.9936 3.50676 13.9972 3.60264 14.0199C3.69851 14.0426 3.78898 14.084 3.86887 14.1417C3.94876 14.1993 4.01651 14.2722 4.06825 14.356C4.76056 15.4732 5.72732 16.3946 6.87648 17.0324C8.02564 17.6703 9.31894 18.0034 10.6332 18C14.8392 18 18.2432 14.667 18.3132 10.547L17.9052 10.95C17.7638 11.0899 17.5725 11.1679 17.3735 11.1668C17.1745 11.1656 16.9841 11.0855 16.8442 10.944C16.7043 10.8025 16.6264 10.6112 16.6275 10.4123C16.6286 10.2133 16.7088 10.0229 16.8502 9.88301L18.5362 8.21701Z" fill="black"/>
</svg>
