<svg width="25" height="24" viewBox="0 0 25 24" fill="none" xmlns="http://www.w3.org/2000/svg">
<path d="M10.8092 0.337737C11.8935 -0.112579 13.1065 -0.112579 14.1908 0.337737L23.1884 4.07438C23.576 4.23518 23.9078 4.51083 24.1415 4.86602C24.3752 5.22121 24.5 5.63977 24.5 6.06808V17.9332C24.4998 18.3612 24.3748 18.7795 24.1412 19.1345C23.9075 19.4894 23.5758 19.7649 23.1884 19.9256L14.1908 23.6623C13.1065 24.1126 11.8935 24.1126 10.8092 23.6623L1.8116 19.9256C1.42404 19.7648 1.09217 19.4892 0.858497 19.134C0.624827 18.7788 0.499998 18.3602 0.5 17.9319V6.06931C0.499998 5.641 0.624827 5.22244 0.858497 4.86725C1.09217 4.51206 1.42404 4.23641 1.8116 4.07561L10.8092 0.337737ZM13.514 2.04627C12.8637 1.77634 12.1363 1.77634 11.486 2.04627L9.188 3.00133L18.2204 6.59907L21.4232 5.33304L13.514 2.04627ZM15.7292 7.58363L6.758 4.00924L3.608 5.31706L12.5012 8.8595L15.7292 7.58363ZM2.3 17.9332C2.30016 17.9942 2.31804 18.0538 2.35138 18.1043C2.38472 18.1549 2.432 18.1941 2.4872 18.2171L11.486 21.9537C11.5236 21.9701 11.5616 21.9849 11.6 21.998V10.4795L2.3 6.77484V17.9332ZM13.514 21.9537L22.5128 18.2171C22.5682 18.1941 22.6156 18.1546 22.649 18.1038C22.6823 18.053 22.7001 17.9931 22.7 17.9319V6.80434L13.4 10.482V21.9992L13.514 21.9537Z" fill="black"/>
</svg>
