<svg width="28" height="29" viewBox="0 0 28 29" fill="none" xmlns="http://www.w3.org/2000/svg">
<path d="M12.0274 0.39467C13.2925 -0.131557 14.7075 -0.131557 15.9726 0.39467L26.4698 4.76121C26.922 4.94912 27.3091 5.27123 27.5818 5.6863C27.8544 6.10137 28 6.59048 28 7.09099V20.9562C27.9997 21.4565 27.854 21.9453 27.5814 22.36C27.3088 22.7748 26.9217 23.0967 26.4698 23.2845L15.9726 27.6511C14.7075 28.1773 13.2925 28.1773 12.0274 27.6511L1.5302 23.2845C1.07805 23.0966 0.690862 22.7745 0.418247 22.3595C0.145631 21.9444 -2.83574e-06 21.4553 0 20.9548V7.09243C-2.83574e-06 6.59192 0.145631 6.1028 0.418247 5.68774C0.690862 5.27267 1.07805 4.95055 1.5302 4.76265L12.0274 0.39467ZM15.183 2.39121C14.4243 2.07579 13.5757 2.07579 12.817 2.39121L10.136 3.50727L20.6738 7.7115L24.4104 6.23205L15.183 2.39121ZM17.7674 8.86203L7.301 4.68508L3.626 6.21337L14.0014 10.353L17.7674 8.86203ZM2.1 20.9562C2.10018 21.0275 2.12105 21.0971 2.15995 21.1562C2.19884 21.2153 2.254 21.2612 2.3184 21.288L12.817 25.6545C12.8609 25.6737 12.9052 25.6909 12.95 25.7062V12.2461L2.1 7.9169V20.9562ZM15.183 25.6545L25.6816 21.288C25.7462 21.2611 25.8015 21.215 25.8404 21.1556C25.8794 21.0963 25.9001 21.0263 25.9 20.9548V7.95137L15.05 12.249V25.7077L15.183 25.6545Z" fill="#0D99FF"/>
</svg>
